<svg width="42" height="43" viewBox="0 0 42 43" fill="none" xmlns="http://www.w3.org/2000/svg">
<path d="M24.3839 16.0836C24.486 15.9974 24.5669 15.8952 24.6221 15.7826C24.6774 15.6701 24.7058 15.5494 24.7058 15.4276C24.7058 15.3058 24.6774 15.1852 24.6221 15.0726C24.5669 14.9601 24.486 14.8578 24.3839 14.7717C24.2818 14.6856 24.1607 14.6172 24.0273 14.5706C23.894 14.524 23.7511 14.5 23.6068 14.5C23.4624 14.5 23.3195 14.524 23.1862 14.5706C23.0528 14.6172 22.9317 14.6856 22.8296 14.7717L15.1459 21.2569C15.0437 21.343 14.9626 21.4452 14.9073 21.5578C14.8519 21.6703 14.8235 21.791 14.8235 21.9128C14.8235 22.0347 14.8519 22.1554 14.9073 22.2679C14.9626 22.3805 15.0437 22.4827 15.1459 22.5688L22.8296 29.054C22.9317 29.1401 23.0528 29.2085 23.1862 29.2551C23.3195 29.3017 23.4624 29.3257 23.6068 29.3257C23.7511 29.3257 23.894 29.3017 24.0273 29.2551C24.1607 29.2085 24.2818 29.1401 24.3839 29.054C24.486 28.9678 24.5669 28.8656 24.6221 28.753C24.6774 28.6405 24.7058 28.5199 24.7058 28.3981C24.7058 28.2762 24.6774 28.1556 24.6221 28.0431C24.5669 27.9305 24.486 27.8283 24.3839 27.7421L17.4752 21.9128L24.3839 16.0836Z" fill="white"/>
<circle r="20.5" transform="matrix(-1 0 0 1 21 21.5)" stroke="white"/>
</svg>
