<svg width="80" height="80" viewBox="0 0 80 80" fill="none" xmlns="http://www.w3.org/2000/svg">
<path d="M71.1111 80H8.88889C6.53141 80 4.27048 79.1571 2.60349 77.6569C0.936505 76.1566 0 74.1217 0 72V16C0 13.8783 0.936505 11.8434 2.60349 10.3431C4.27048 8.84285 6.53141 8 8.88889 8H17.7778V0H26.6667V8H53.3333V0H62.2222V8H71.1111C73.4686 8 75.7295 8.84285 77.3965 10.3431C79.0635 11.8434 80 13.8783 80 16V72C80 74.1217 79.0635 76.1566 77.3965 77.6569C75.7295 79.1571 73.4686 80 71.1111 80ZM8.88889 32V72H71.1111V32H8.88889ZM8.88889 16V24H71.1111V16H8.88889Z" fill="white"/>
</svg>
