<svg width="80" height="80" viewBox="0 0 80 80" fill="none" xmlns="http://www.w3.org/2000/svg">
<path d="M18.3333 0C13.4718 0.00254357 8.81023 1.85764 5.37264 5.15773C1.93504 8.45782 0.00264955 12.933 0 17.6C0 27.312 8.21667 35.2 18.3333 35.2C21.0433 35.2 23.5933 34.5504 25.9367 33.5008L43.3333 55.5008V73.6H30V80H63.3333V73.6H50V55.5008L79.3767 18.3008L80 17.4016V12.8H35.8333C33.8167 5.376 26.6133 0 18.3333 0ZM18.3333 6.4C22.9667 6.4 26.9667 9.088 28.75 12.8H15H13.3333V17.4016L13.96 18.2976L21.77 28.2016C20.6676 28.585 19.5058 28.7873 18.3333 28.8C16.7963 28.8172 15.2712 28.5392 13.8476 27.9824C12.4241 27.4256 11.1309 26.6013 10.0439 25.5578C8.95699 24.5144 8.0983 23.2729 7.51833 21.9063C6.93835 20.5397 6.64879 19.0756 6.66667 17.6C6.64879 16.1244 6.93835 14.6603 7.51833 13.2937C8.0983 11.9271 8.95699 10.6856 10.0439 9.64217C11.1309 8.59871 12.4241 7.77437 13.8476 7.2176C15.2712 6.66082 16.7963 6.38284 18.3333 6.4ZM23.1267 19.2H70.2067L65.2067 25.6H35L40 32H60.1033L46.6667 49.1008L23.1267 19.2Z" fill="white"/>
</svg>
