<svg width="30" height="30" viewBox="0 0 30 30" fill="none" xmlns="http://www.w3.org/2000/svg">
<path d="M14.8293 0C10.895 0.0151161 7.12749 1.6042 4.35373 4.41838C1.57997 7.23257 0.0267048 11.0419 0.0349128 15.01C0.0079834 18.5803 1.25294 22.0417 3.54319 24.7641C5.83344 27.4865 9.01673 29.2891 12.5137 29.8436C13.2564 29.9546 14.0065 30.0066 14.7573 29.9993C15.5523 29.9995 16.3464 29.9475 17.1347 29.8436C20.6206 29.2786 23.7911 27.4745 26.0731 24.7572C28.3655 22.0359 29.624 18.5811 29.6237 15.01C29.6306 11.0423 28.0769 7.23376 25.3034 4.41987C22.5299 1.60598 18.7632 0.0164862 14.8293 0ZM25.1622 23.9579C23.0707 26.4526 20.1628 28.1096 16.9649 28.6291C16.6046 28.6758 16.2393 28.7122 15.8739 28.7329V17.9944H19.3423L19.6201 16.183H15.8739V12.3059C15.8739 10.2299 16.3628 9.11398 19.3525 9.11398H19.9752V7.3493C19.3165 7.3493 18.946 7.3493 17.9786 7.3493C15.2719 7.3493 13.7847 8.98941 13.7847 11.8336V16.183H10.1826V17.9944H13.7847V28.7381C13.1106 28.6914 12.7144 28.6239 12.7092 28.6239C9.51378 28.0827 6.61095 26.4195 4.51385 23.9282C2.41675 21.4369 1.26045 18.2781 1.24934 15.01C1.2425 11.3676 2.66842 7.87121 5.21428 5.28786C7.76014 2.70451 11.218 1.24519 14.8293 1.23007C18.4406 1.24519 21.8985 2.70451 24.4444 5.28786C26.9902 7.87121 28.4161 11.3676 28.4093 15.01C28.4114 18.2863 27.2607 21.4571 25.1622 23.9579Z" fill="white"/>
</svg>
