<svg width="19" height="26" viewBox="0 0 19 26" fill="none" xmlns="http://www.w3.org/2000/svg">
<path opacity="0.8" d="M18.3333 8.16667C18.3333 3.41667 15.9583 0.5 15.9583 0.5H2.375C2.375 0.5 0 3.45833 0 8.16667C0 12.6667 3.66667 16.875 8.5 17.125C8.45833 19.75 8.41667 22.4583 7.79167 23.4167C6.875 24.75 3.70833 24.0833 3.70833 25.5H14.625C14.625 24.0833 11.4583 24.75 10.5417 23.4167C9.91667 22.4583 10.0417 19.75 10 17.125C14.8333 16.875 18.3333 12.7083 18.3333 8.16667ZM9 15.5C4.91667 15.5 2.06939 12.2083 1.65272 8.5C1.61106 8.25 1.65272 8.54167 1.65272 8.29167C1.65272 4.16667 3.29167 2 3.29167 2H15.0417C15.0417 2 16.4583 4.25 16.5 8.29167V8.5C16.5 12.5 13.375 15.5 9 15.5Z" fill="white"/>
</svg>
