<svg width="31" height="30" viewBox="0 0 31 30" fill="none" xmlns="http://www.w3.org/2000/svg">
<path d="M15.6266 30C11.394 30 10.8392 30 9.17478 29.9027C7.94774 29.879 6.73345 29.6489 5.58279 29.2221C4.63053 28.863 3.76785 28.3008 3.05467 27.5748C2.32811 26.8609 1.76426 25.9986 1.40166 25.0467C0.975466 23.8939 0.745407 22.6778 0.721022 21.449C0.640946 19.7731 0.623779 19.2183 0.623779 14.9971C0.623779 10.776 0.623787 10.2212 0.721022 8.55101C0.744748 7.32397 0.974838 6.10965 1.40166 4.959C1.75947 4.00607 2.32176 3.14313 3.04895 2.43089C3.76134 1.70249 4.62412 1.13835 5.57707 0.777875C6.73026 0.352298 7.94591 0.120373 9.17478 0.0915003C10.8507 0.0171438 11.4112 0 15.6266 0C19.8421 0 20.3969 -1.53586e-05 22.0728 0.0915003C23.2999 0.119739 24.5137 0.351695 25.6648 0.777875C26.6163 1.13566 27.4789 1.69574 28.1929 2.41944C28.9201 3.13499 29.484 3.99936 29.8459 4.95327C30.272 6.10632 30.5039 7.32207 30.5323 8.55101C30.6066 10.2212 30.6238 10.7817 30.6238 14.9971C30.6238 19.2126 30.6238 19.7788 30.5323 21.449C30.5016 22.6806 30.2658 23.8984 29.8345 25.0524C29.4683 26.0028 28.9072 26.8659 28.1872 27.5863C27.4654 28.3044 26.6026 28.8653 25.6533 29.2335C24.5027 29.6604 23.2884 29.8905 22.0613 29.9142C20.4083 29.9828 19.8535 30 15.6266 30ZM15.6266 1.40134C11.3826 1.40134 10.885 1.40133 9.2377 1.49284C8.16022 1.50063 7.09215 1.69413 6.08041 2.06481C5.30266 2.35754 4.59804 2.81621 4.01558 3.40894C3.42352 3.99193 2.96833 4.69917 2.68289 5.47951C2.30976 6.48464 2.11616 7.5475 2.11091 8.61964C2.03656 10.2841 2.0194 10.7817 2.0194 15.0028C2.0194 19.224 2.0194 19.7273 2.11091 21.3918C2.11925 22.4673 2.31273 23.5334 2.68289 24.5434C2.97655 25.3237 3.43726 26.0303 4.03274 26.6139C4.61262 27.207 5.31823 27.6625 6.09757 27.9466C7.10304 28.3185 8.16569 28.512 9.2377 28.5186C10.9021 28.5929 11.3998 28.6101 15.6266 28.6101C19.8535 28.6101 20.3511 28.6101 22.0156 28.5186C23.0911 28.5096 24.1571 28.3161 25.1671 27.9466C25.939 27.6455 26.64 27.1879 27.2263 26.6025C27.813 26.0185 28.2692 25.3167 28.5647 24.5434C28.9348 23.5334 29.1283 22.4673 29.1366 21.3918C29.211 19.7273 29.2282 19.224 29.2282 15.0028C29.2282 10.7817 29.2282 10.2841 29.1366 8.61391C29.1276 7.53841 28.9342 6.47242 28.5647 5.46234C28.2738 4.68227 27.8127 3.97689 27.2148 3.39752C26.6337 2.80455 25.9286 2.34747 25.15 2.05909C24.1435 1.69088 23.0815 1.49744 22.0099 1.48712C20.3626 1.38988 19.865 1.37844 15.6266 1.37844V1.40134ZM15.6266 22.3699C15.1445 22.3713 14.6634 22.3234 14.191 22.2269C12.7645 21.9474 11.454 21.2483 10.4274 20.2192C9.39947 19.1918 8.70059 17.8816 8.41978 16.4556C8.13262 15.031 8.27803 13.553 8.83731 12.2116C9.39048 10.8667 10.3325 9.7176 11.5428 8.91135C12.7521 8.10509 14.1732 7.67516 15.6266 7.67587C16.5916 7.67262 17.5476 7.86106 18.4391 8.23025C19.3307 8.59943 20.14 9.14201 20.8202 9.82649C21.5046 10.5067 22.0472 11.316 22.4164 12.2075C22.7856 13.0991 22.974 14.0551 22.9708 15.02C22.9715 16.4735 22.5416 17.8945 21.7353 19.1039C20.9291 20.3141 19.7799 21.2562 18.435 21.8093C17.5435 22.1718 16.5891 22.3546 15.6266 22.347V22.3699ZM15.6266 9.04862C15.2426 9.05101 14.8596 9.08928 14.4827 9.16299C13.3243 9.39628 12.2601 9.9652 11.4226 10.7989C10.5875 11.6344 10.02 12.6996 9.79252 13.8589C9.563 15.011 9.68044 16.2054 10.13 17.2907C10.5805 18.3827 11.3474 19.315 12.3321 19.9676C13.312 20.6279 14.4678 20.9787 15.6495 20.9742C16.4335 20.9772 17.2104 20.8245 17.9349 20.525C18.6595 20.2256 19.3175 19.7853 19.8707 19.2297C20.4267 18.6754 20.8676 18.0165 21.168 17.2911C21.4683 16.5657 21.6223 15.788 21.6209 15.0028C21.6208 13.8218 21.2705 12.6673 20.6142 11.6854C19.9588 10.7025 19.0247 9.93763 17.9317 9.48901C17.2013 9.18579 16.4175 9.03216 15.6266 9.03717V9.04862ZM24.0232 7.78455C23.9472 7.79329 23.8704 7.79329 23.7944 7.78455C23.5785 7.73422 23.3806 7.62538 23.2224 7.46997C23.067 7.31183 22.9582 7.11393 22.9079 6.89799C22.8503 6.65728 22.8724 6.4044 22.9708 6.1773C23.0608 5.96622 23.2098 5.78555 23.3998 5.65682C23.5907 5.52847 23.816 5.46068 24.0461 5.46234C24.197 5.4626 24.3465 5.49174 24.4865 5.54815C24.627 5.60754 24.7551 5.69292 24.864 5.79982C24.9709 5.9087 25.0563 6.03676 25.1157 6.1773C25.1721 6.3173 25.2012 6.4668 25.2015 6.61773C25.2014 6.84758 25.1338 7.07234 25.007 7.26407C24.8813 7.45548 24.6995 7.60332 24.4865 7.68732C24.3393 7.74555 24.1812 7.77093 24.0232 7.76168V7.78455Z" fill="white"/>
</svg>
