<svg width="100" height="60" viewBox="0 0 100 60" fill="none" xmlns="http://www.w3.org/2000/svg">
<g clip-path="url(#clip0_690_273)">
<path d="M0.483087 45.3354C0.354965 45.3354 0.232082 45.2845 0.141485 45.1938C0.0508888 45.1031 0 44.9802 0 44.8519V15.3777C0.000638847 14.9592 0.16701 14.5581 0.462669 14.2622C0.758328 13.9663 1.15915 13.7997 1.57727 13.7991H6.80187C6.92999 13.7991 7.05286 13.85 7.14345 13.9407C7.23405 14.0314 7.28495 14.1544 7.28495 14.2826C7.28495 14.4108 7.23405 14.5338 7.14345 14.6245C7.05286 14.7152 6.92999 14.7661 6.80187 14.7661H1.57727C1.4152 14.7661 1.25976 14.8305 1.14515 14.9452C1.03055 15.0599 0.966175 15.2155 0.966175 15.3777V44.8519C0.966175 44.9802 0.915271 45.1031 0.824675 45.1938C0.734078 45.2845 0.61121 45.3354 0.483087 45.3354Z" fill="white"/>
<path d="M1.65695 14.7661C1.52882 14.7661 1.40594 14.7152 1.31534 14.6245C1.22475 14.5338 1.17386 14.4108 1.17386 14.2826V13.1198C1.17578 11.6951 1.74211 10.3293 2.74867 9.32183C3.75523 8.3144 5.11988 7.74759 6.54337 7.74567H8.04336C8.17149 7.74567 8.29435 7.79661 8.38495 7.88728C8.47555 7.97795 8.52645 8.10093 8.52645 8.22917C8.52645 8.3574 8.47555 8.48038 8.38495 8.57105C8.29435 8.66173 8.17149 8.71267 8.04336 8.71267H6.54337C5.37592 8.71395 4.25666 9.17868 3.43115 10.0049C2.60564 10.8311 2.14131 11.9513 2.14003 13.1198V14.2826C2.14003 14.4108 2.08913 14.5338 1.99853 14.6245C1.90794 14.7152 1.78507 14.7661 1.65695 14.7661Z" fill="white"/>
<path d="M18.4539 45.2145H12.4419C12.3138 45.2145 12.1909 45.1636 12.1003 45.0729C12.0097 44.9822 11.9588 44.8593 11.9588 44.731C11.9588 44.6028 12.0097 44.4798 12.1003 44.3891C12.1909 44.2985 12.3138 44.2475 12.4419 44.2475H17.4878V30.006L8.25112 17.6623C8.16445 17.5467 8.11175 17.4092 8.09895 17.2652C8.08615 17.1213 8.11375 16.9766 8.17866 16.8476C8.24281 16.7179 8.342 16.6088 8.46497 16.5328C8.58793 16.4567 8.72975 16.4167 8.87431 16.4172H17.7124V15.3245C17.7118 15.1766 17.6528 15.0349 17.5483 14.9304C17.4438 14.8258 17.3022 14.7667 17.1544 14.7661H16.4636V13.48C16.4636 10.5524 14.2752 8.94474 13.5506 8.94474H13.0675V3.71327C13.0662 2.9853 12.7767 2.28751 12.2624 1.77276C11.7481 1.25801 11.0509 0.968261 10.3236 0.966983H8.30667C7.57955 0.968263 6.88262 1.25809 6.36869 1.77291C5.85477 2.28773 5.5658 2.98552 5.56516 3.71327V8.22916C5.56516 8.35739 5.51426 8.48037 5.42366 8.57105C5.33306 8.66172 5.21019 8.71266 5.08207 8.71266C4.95395 8.71266 4.83107 8.66172 4.74047 8.57105C4.64987 8.48037 4.59898 8.35739 4.59898 8.22916V3.71327C4.59962 2.72906 4.99038 1.78531 5.6855 1.08914C6.38062 0.39297 7.32331 0.00126255 8.30667 -1.79335e-05H10.3236C10.8118 -0.00128929 11.2955 0.0937845 11.7471 0.279766C12.1986 0.465747 12.6091 0.738986 12.955 1.08386C13.3009 1.42873 13.5755 1.83848 13.7631 2.28965C13.9507 2.74083 14.0475 3.22459 14.0482 3.71327V8.06477C15.4298 8.47816 17.4443 10.504 17.4443 13.4896V13.8378C17.7902 13.9069 18.1017 14.0937 18.3257 14.3665C18.5498 14.6392 18.6728 14.9811 18.6737 15.3342V17.3939H9.25354L18.466 29.6942L18.4539 45.2145Z" fill="white"/>
<path d="M23.7848 45.2146H17.9708C17.8427 45.2146 17.7198 45.1636 17.6292 45.0729C17.5386 44.9823 17.4877 44.8593 17.4877 44.7311C17.4877 44.6028 17.5386 44.4798 17.6292 44.3892C17.7198 44.2985 17.8427 44.2476 17.9708 44.2476H23.7848C23.9129 44.2476 24.0358 44.2985 24.1264 44.3892C24.217 44.4798 24.2679 44.6028 24.2679 44.7311C24.2679 44.8593 24.217 44.9823 24.1264 45.0729C24.0358 45.1636 23.9129 45.2146 23.7848 45.2146Z" fill="white"/>
<path d="M17.9708 30.33C17.863 30.3295 17.7584 30.2929 17.6737 30.226C17.5735 30.147 17.5086 30.0314 17.4932 29.9045C17.4778 29.7777 17.5132 29.6499 17.5916 29.5491L27.7365 16.5357C27.7756 16.4857 27.8242 16.4438 27.8795 16.4126C27.9348 16.3814 27.9958 16.3614 28.0588 16.3538C28.1218 16.3461 28.1858 16.351 28.2469 16.3681C28.3081 16.3853 28.3652 16.4143 28.4152 16.4535C28.5158 16.5322 28.5812 16.6477 28.5971 16.7745C28.6129 16.9014 28.5779 17.0293 28.4997 17.1304L18.3549 30.1438C18.3094 30.2022 18.2511 30.2494 18.1845 30.2817C18.1179 30.3139 18.0448 30.3305 17.9708 30.33Z" fill="white"/>
<path d="M17.966 26.5369C17.8626 26.5371 17.7618 26.504 17.6786 26.4426C17.6275 26.4049 17.5843 26.3574 17.5515 26.303C17.5187 26.2485 17.497 26.1881 17.4876 26.1252C17.4782 26.0624 17.4812 25.9982 17.4966 25.9366C17.512 25.8749 17.5393 25.8168 17.5771 25.7657L27.6906 12.1262C27.7667 12.0235 27.8803 11.9552 28.0066 11.9362C28.1329 11.9172 28.2616 11.949 28.3645 12.0246C28.4156 12.0624 28.4588 12.1098 28.4916 12.1643C28.5243 12.2188 28.546 12.2792 28.5555 12.342C28.5649 12.4049 28.5618 12.469 28.5465 12.5307C28.5311 12.5924 28.5037 12.6505 28.4659 12.7015L18.3549 26.3411C18.3099 26.4019 18.2513 26.4513 18.1837 26.4853C18.1162 26.5193 18.0416 26.537 17.966 26.5369Z" fill="white"/>
<path d="M24.007 22.5915H12.1713C12.0432 22.5915 11.9203 22.5406 11.8297 22.4499C11.7392 22.3593 11.6882 22.2363 11.6882 22.108C11.6882 21.9798 11.7392 21.8568 11.8297 21.7662C11.9203 21.6755 12.0432 21.6245 12.1713 21.6245H24.007C24.1351 21.6245 24.258 21.6755 24.3486 21.7662C24.4392 21.8568 24.4901 21.9798 24.4901 22.108C24.4901 22.2363 24.4392 22.3593 24.3486 22.4499C24.258 22.5406 24.1351 22.5915 24.007 22.5915Z" fill="white"/>
<path d="M98.8107 53.8886C97.6706 51.471 94.103 51.413 93.6996 51.413H93.6682C90.2287 51.413 88.7142 52.6024 88.0475 53.6009C87.6673 54.1745 87.1523 54.646 86.5475 54.974H0.966175V51.1374C0.966175 51.0092 0.915271 50.8862 0.824675 50.7955C0.734078 50.7049 0.61121 50.6539 0.483087 50.6539C0.354965 50.6539 0.232082 50.7049 0.141485 50.7955C0.0508888 50.8862 0 51.0092 0 51.1374V59.5237C0 59.652 0.0508888 59.775 0.141485 59.8656C0.232082 59.9563 0.354965 60.0072 0.483087 60.0072C0.61121 60.0072 0.734078 59.9563 0.824675 59.8656C0.915271 59.775 0.966175 59.652 0.966175 59.5237V55.941H86.5451C87.1664 56.2753 87.6957 56.7577 88.0862 57.3456C89.0523 58.7767 90.8011 59.5044 93.318 59.5044C96.8131 59.5044 98.231 58.0394 98.8035 56.8113C99.0171 56.354 99.1284 55.8555 99.1296 55.3507C99.1309 54.8459 99.022 54.3469 98.8107 53.8886ZM97.9291 56.4028C97.2769 57.7977 95.6827 58.5374 93.318 58.5374C91.1441 58.5374 89.6538 57.9548 88.8905 56.8089C88.5414 56.2845 88.1012 55.8268 87.591 55.4575C88.0857 55.0953 88.5126 54.6485 88.8519 54.1376C89.3857 53.3349 90.6562 52.38 93.6682 52.38H93.6996C93.8349 52.38 97.0378 52.4018 97.9363 54.3019C98.088 54.6315 98.1659 54.9903 98.1646 55.3532C98.1634 55.716 98.083 56.0742 97.9291 56.4028Z" fill="white"/>
<path d="M31 27.7754V16.0529H34.1978C35.0347 16.0529 35.6646 16.2882 36.0875 16.7589C36.5103 17.2251 36.7217 17.9089 36.7217 18.8103V24.2986C36.7217 25.4087 36.5279 26.2657 36.1403 26.8696C35.7571 27.4735 35.0832 27.7754 34.1185 27.7754H31ZM33.3389 25.704H33.7419C34.1692 25.704 34.3828 25.4953 34.3828 25.0779V19.0301C34.3828 18.6394 34.33 18.3885 34.2243 18.2775C34.1229 18.162 33.9137 18.1043 33.5966 18.1043H33.3389V25.704Z" fill="white"/>
<path d="M37.9588 19.4897L38.3949 17.9178H37.5558V15.933H40.0269V17.8579L39.3529 19.4897H37.9588Z" fill="white"/>
<path d="M43.8753 27.7754L44.9985 16.0529H48.943L50.0464 27.7754H47.8462L47.681 25.8838H46.2803L46.135 27.7754H43.8753ZM46.4455 24.0122H47.5026L46.9939 18.051H46.8882L46.4455 24.0122Z" fill="white"/>
<path d="M50.7879 27.7754V16.0529H53.1929V27.7754H50.7879Z" fill="white"/>
<path d="M56.987 27.882C56.2822 27.882 55.7206 27.7488 55.3022 27.4824C54.8837 27.2159 54.5842 26.8319 54.4036 26.3301C54.223 25.8283 54.1327 25.2244 54.1327 24.5184V20.5021C54.1327 19.5741 54.397 18.8725 54.9255 18.3974C55.4541 17.9178 56.1809 17.678 57.1059 17.678C59.0087 17.678 59.9601 18.6194 59.9601 20.5021V21.2281C59.9601 22.1073 59.9513 22.6979 59.9337 22.9998H56.498V24.9314C56.498 25.109 56.509 25.2844 56.5311 25.4576C56.5531 25.6263 56.6015 25.7662 56.6764 25.8772C56.7557 25.9882 56.8812 26.0437 57.053 26.0437C57.2997 26.0437 57.4539 25.9371 57.5155 25.724C57.5772 25.5064 57.608 25.2244 57.608 24.8781V23.919H59.9601V24.4851C59.9601 25.2311 59.8676 25.8572 59.6826 26.3634C59.5021 26.8652 59.1937 27.2448 58.7577 27.5023C58.326 27.7554 57.7358 27.882 56.987 27.882ZM56.4848 21.8142H57.608V20.4688C57.608 20.1091 57.564 19.8516 57.4759 19.6962C57.3878 19.5363 57.2556 19.4564 57.0795 19.4564C56.8901 19.4564 56.7425 19.5319 56.6368 19.6829C56.5355 19.8338 56.4848 20.0958 56.4848 20.4688V21.8142Z" fill="white"/>
<path d="M60.2789 27.7754L62.0958 22.407L60.444 17.778H62.8556L63.7079 20.2024L64.547 17.778H66.3045L64.5999 22.7201L66.3838 27.7754H64.0119L63.0076 24.9647L62.0694 27.7754H60.2789Z" fill="white"/>
<path d="M68.7838 27.882C68.2332 27.882 67.8125 27.7532 67.5218 27.4957C67.2355 27.2381 67.0395 26.8851 66.9338 26.4367C66.8281 25.9882 66.7752 25.4798 66.7752 24.9114C66.7752 24.3031 66.8347 23.8057 66.9536 23.4194C67.0725 23.0287 67.2751 22.709 67.5615 22.4603C67.8522 22.2117 68.2508 22.0007 68.7573 21.8276L70.2241 21.3214V20.2956C70.2241 19.7584 70.0501 19.4897 69.7021 19.4897C69.385 19.4897 69.2264 19.7073 69.2264 20.1424V20.7419H66.9272C66.9228 20.7064 66.9206 20.662 66.9206 20.6087C66.9206 20.551 66.9206 20.4866 66.9206 20.4155C66.9206 19.4209 67.1518 18.7171 67.6143 18.3041C68.0812 17.8867 68.819 17.678 69.8277 17.678C70.3562 17.678 70.8298 17.7735 71.2482 17.9644C71.6666 18.1509 71.997 18.4285 72.2393 18.797C72.4859 19.1656 72.6093 19.6207 72.6093 20.1624V27.7754H70.2571V26.5899C70.1426 27.0072 69.9532 27.327 69.6889 27.549C69.4246 27.771 69.1229 27.882 68.7838 27.882ZM69.7154 26.0304C69.9092 26.0304 70.0413 25.9482 70.1118 25.7839C70.1823 25.6196 70.2175 25.442 70.2175 25.2511V22.467C69.8915 22.6002 69.6383 22.7689 69.4577 22.9732C69.2771 23.173 69.1868 23.4683 69.1868 23.859V25.1445C69.1868 25.7351 69.363 26.0304 69.7154 26.0304Z" fill="white"/>
<path d="M73.5887 27.7754V17.7846H75.954V19.0568C76.0421 18.6749 76.2051 18.3508 76.443 18.0843C76.6852 17.8135 77.02 17.678 77.4472 17.678C78.1344 17.678 78.6321 17.8912 78.9404 18.3175C79.2532 18.7437 79.4095 19.3276 79.4095 20.0692V27.7754H77.0772V20.3156C77.0772 20.1202 77.0376 19.9404 76.9583 19.7761C76.879 19.6074 76.7425 19.523 76.5487 19.523C76.3681 19.523 76.2337 19.5874 76.1456 19.7162C76.0619 19.8405 76.0091 19.9981 75.9871 20.1891C75.965 20.3756 75.954 20.5621 75.954 20.7486V27.7754H73.5887Z" fill="white"/>
<path d="M82.3579 27.882C81.8998 27.882 81.5364 27.7976 81.2677 27.6289C80.999 27.4602 80.7986 27.227 80.6665 26.9295C80.5343 26.632 80.4462 26.2835 80.4022 25.8838C80.3625 25.4842 80.3427 25.0557 80.3427 24.5983V20.2557C80.3427 19.4875 80.4771 18.8658 80.7457 18.3907C81.0188 17.9156 81.4791 17.678 82.1266 17.678C82.6067 17.678 82.9745 17.7824 83.23 17.9911C83.4899 18.1953 83.6903 18.4818 83.8313 18.8503V16.0529H86.2362V27.7754H83.8313V26.7164C83.6991 27.0761 83.5229 27.3603 83.3027 27.5689C83.0869 27.7776 82.7719 27.882 82.3579 27.882ZM83.263 26.017C83.4877 26.017 83.6374 25.926 83.7123 25.744C83.7916 25.5619 83.8313 25.2355 83.8313 24.7649V20.5621C83.8313 20.3267 83.796 20.0958 83.7255 19.8694C83.6595 19.6385 83.5097 19.523 83.2763 19.523C83.0208 19.523 82.86 19.6318 82.7939 19.8494C82.7279 20.067 82.6948 20.3045 82.6948 20.5621V24.7649C82.6948 25.5996 82.8842 26.017 83.263 26.017Z" fill="white"/>
<path d="M89.9906 27.882C89.2859 27.882 88.7243 27.7488 88.3058 27.4824C87.8874 27.2159 87.5879 26.8319 87.4073 26.3301C87.2267 25.8283 87.1364 25.2244 87.1364 24.5184V20.5021C87.1364 19.5741 87.4007 18.8725 87.9292 18.3974C88.4578 17.9178 89.1846 17.678 90.1096 17.678C92.0124 17.678 92.9638 18.6194 92.9638 20.5021V21.2281C92.9638 22.1073 92.955 22.6979 92.9374 22.9998H89.5017V24.9314C89.5017 25.109 89.5127 25.2844 89.5347 25.4576C89.5568 25.6263 89.6052 25.7662 89.6801 25.8772C89.7594 25.9882 89.8849 26.0437 90.0567 26.0437C90.3034 26.0437 90.4575 25.9371 90.5192 25.724C90.5809 25.5064 90.6117 25.2244 90.6117 24.8781V23.919H92.9638V24.4851C92.9638 25.2311 92.8713 25.8572 92.6863 26.3634C92.5057 26.8652 92.1974 27.2448 91.7613 27.5023C91.3297 27.7554 90.7394 27.882 89.9906 27.882ZM89.4885 21.8142H90.6117V20.4688C90.6117 20.1091 90.5676 19.8516 90.4796 19.6962C90.3915 19.5363 90.2593 19.4564 90.0831 19.4564C89.8937 19.4564 89.7462 19.5319 89.6405 19.6829C89.5391 19.8338 89.4885 20.0958 89.4885 20.4688V21.8142Z" fill="white"/>
<path d="M93.8904 27.7754V17.7846H96.2954V18.8969C96.4099 18.5106 96.6125 18.2087 96.9032 17.9911C97.1939 17.7735 97.5595 17.6647 98 17.6647V19.6562C97.8062 19.6562 97.5749 19.6784 97.3063 19.7228C97.0376 19.7628 96.8019 19.8205 96.5993 19.896C96.3967 19.9671 96.2954 20.047 96.2954 20.1358V27.7754H93.8904Z" fill="white"/>
<path d="M31 44.8264V33.1039H34.1516C34.9973 33.1039 35.6117 33.3126 35.995 33.73C36.3826 34.1429 36.5764 34.8267 36.5764 35.7814V36.2943C36.5764 36.8449 36.4773 37.2911 36.2791 37.633C36.0852 37.9749 35.7879 38.1992 35.3871 38.3057C35.9113 38.439 36.2614 38.752 36.4376 39.2449C36.6182 39.7333 36.7085 40.3305 36.7085 41.0366C36.7085 41.7959 36.638 42.4597 36.4971 43.0281C36.3561 43.5964 36.1007 44.0382 35.7307 44.3535C35.3607 44.6688 34.8343 44.8264 34.1516 44.8264H31ZM33.2728 37.5198H33.7485C33.9644 37.5198 34.1031 37.4354 34.1648 37.2667C34.2265 37.098 34.2573 36.8959 34.2573 36.6606V35.4817C34.2573 35.1042 34.0921 34.9155 33.7618 34.9155H33.2728V37.5198ZM33.5041 42.7616C34.1075 42.7616 34.4093 42.473 34.4093 41.8958V40.4305C34.4093 40.0974 34.3586 39.8354 34.2573 39.6445C34.1604 39.4491 33.9754 39.3514 33.7023 39.3514H33.2728V42.7483C33.3697 42.7572 33.4468 42.7616 33.5041 42.7616Z" fill="white"/>
<path d="M39.3067 44.933C38.7561 44.933 38.3354 44.8042 38.0447 44.5467C37.7584 44.2891 37.5624 43.9361 37.4567 43.4876C37.351 43.0392 37.2981 42.5307 37.2981 41.9624C37.2981 41.3541 37.3576 40.8567 37.4765 40.4704C37.5954 40.0797 37.7981 39.76 38.0844 39.5113C38.3751 39.2626 38.7737 39.0517 39.2803 38.8785L40.747 38.3723V37.3466C40.747 36.8093 40.573 36.5407 40.2251 36.5407C39.9079 36.5407 39.7494 36.7583 39.7494 37.1934V37.7929H37.4501C37.4457 37.7574 37.4435 37.713 37.4435 37.6597C37.4435 37.6019 37.4435 37.5376 37.4435 37.4665C37.4435 36.4719 37.6747 35.7681 38.1372 35.3551C38.6041 34.9377 39.3419 34.729 40.3506 34.729C40.8792 34.729 41.3527 34.8245 41.7711 35.0154C42.1896 35.2019 42.5199 35.4795 42.7622 35.848C43.0088 36.2166 43.1322 36.6717 43.1322 37.2134V44.8264H40.7801V43.6408C40.6655 44.0582 40.4761 44.3779 40.2119 44.6C39.9476 44.822 39.6458 44.933 39.3067 44.933ZM40.2383 43.0814C40.4321 43.0814 40.5642 42.9992 40.6347 42.8349C40.7052 42.6706 40.7404 42.493 40.7404 42.3021V39.518C40.4145 39.6512 40.1612 39.8199 39.9806 40.0242C39.8 40.224 39.7097 40.5193 39.7097 40.91V42.1955C39.7097 42.7861 39.8859 43.0814 40.2383 43.0814Z" fill="white"/>
<path d="M44.1116 44.8264V34.8356H46.5166V35.9479C46.6311 35.5616 46.8337 35.2597 47.1244 35.0421C47.4152 34.8245 47.7807 34.7157 48.2212 34.7157V36.7072C48.0274 36.7072 47.7962 36.7294 47.5275 36.7738C47.2588 36.8138 47.0231 36.8715 46.8205 36.947C46.6179 37.018 46.5166 37.098 46.5166 37.1868V44.8264H44.1116Z" fill="white"/>
<path d="M54.8579 44.933C54.0166 44.933 53.3383 44.6688 52.8229 44.1404C52.312 43.612 52.0565 42.8727 52.0565 41.9224V36.5141C52.0565 35.3773 52.2789 34.507 52.7238 33.9031C53.1731 33.2992 53.9021 32.9973 54.9107 32.9973C55.4613 32.9973 55.9503 33.0994 56.3775 33.3037C56.8092 33.5079 57.1483 33.8143 57.395 34.2228C57.6417 34.6269 57.765 35.1375 57.765 35.7548V37.7796H55.4525V36.0478C55.4525 35.697 55.4085 35.4617 55.3204 35.3418C55.2323 35.2175 55.0957 35.1553 54.9107 35.1553C54.6949 35.1553 54.5496 35.2352 54.4747 35.3951C54.3998 35.5505 54.3624 35.7592 54.3624 36.0212V41.8891C54.3624 42.2133 54.4086 42.4419 54.5011 42.5751C54.598 42.7084 54.7346 42.775 54.9107 42.775C55.109 42.775 55.2477 42.6928 55.327 42.5285C55.4107 42.3642 55.4525 42.1511 55.4525 41.8891V39.7777H57.7914V41.9957C57.7914 43.0258 57.5338 43.774 57.0184 44.2403C56.5031 44.7021 55.7829 44.933 54.8579 44.933Z" fill="white"/>
<path d="M61.4798 44.933C59.5065 44.933 58.5198 43.9006 58.5198 41.8358V37.8262C58.5198 36.8848 58.7819 36.1344 59.306 35.5749C59.8302 35.011 60.5548 34.729 61.4798 34.729C62.4092 34.729 63.1359 35.011 63.6601 35.5749C64.1843 36.1344 64.4464 36.8848 64.4464 37.8262V41.8358C64.4464 43.9006 63.4575 44.933 61.4798 44.933ZM61.4798 43.0947C61.678 43.0947 61.8189 43.0236 61.9026 42.8815C61.9907 42.735 62.0348 42.5507 62.0348 42.3287V37.4465C62.0348 36.8648 61.8498 36.574 61.4798 36.574C61.1098 36.574 60.9248 36.8648 60.9248 37.4465V42.3287C60.9248 42.5507 60.9666 42.735 61.0503 42.8815C61.1384 43.0236 61.2816 43.0947 61.4798 43.0947Z" fill="white"/>
<path d="M68.3725 44.933C67.2626 44.933 66.4741 44.6466 66.0072 44.0738C65.5447 43.501 65.3135 42.6595 65.3135 41.5494V38.4723C65.3135 37.6375 65.4016 36.9426 65.5777 36.3875C65.7539 35.8325 66.0623 35.4173 66.5027 35.142C66.9432 34.8667 67.5555 34.729 68.3395 34.729C68.8857 34.729 69.3746 34.8267 69.8063 35.0221C70.2423 35.2175 70.5859 35.5039 70.837 35.8813C71.088 36.2587 71.2136 36.7205 71.2136 37.2667V38.792H68.802V37.3932C68.802 37.1623 68.769 36.9692 68.7029 36.8138C68.6368 36.6539 68.4937 36.574 68.2734 36.574C67.8858 36.574 67.692 36.8515 67.692 37.4066V42.2488C67.692 42.453 67.7361 42.6418 67.8242 42.8149C67.9122 42.9837 68.0576 43.068 68.2602 43.068C68.4672 43.068 68.6104 42.9859 68.6897 42.8216C68.7734 42.6529 68.8152 42.4575 68.8152 42.2355V40.557H71.2136V42.3021C71.2136 42.8527 71.0903 43.3256 70.8436 43.7208C70.6013 44.1115 70.2666 44.4112 69.8393 44.6199C69.4121 44.8286 68.9231 44.933 68.3725 44.933Z" fill="white"/>
<path d="M72.1071 44.8264V33.1039H74.446V38.2791L75.5824 34.8356H78.0337L76.5471 39.1783L78.4367 44.8264H75.9194L74.446 40.1174V44.8264H72.1071Z" fill="white"/>
<path d="M80.8565 44.933C80.2178 44.933 79.7861 44.7976 79.5615 44.5267C79.3413 44.2514 79.2311 43.8318 79.2311 43.2678V37.0402H78.5638V35.2219H79.2311V33.1039H81.5304V35.2219H82.1977V37.0402H81.5304V42.7084C81.5304 42.8727 81.5568 42.9881 81.6097 43.0547C81.6625 43.1213 81.7639 43.1546 81.9136 43.1546C82.0193 43.1546 82.114 43.1457 82.1977 43.128V44.7531C82.1449 44.7709 81.9797 44.8042 81.7022 44.8531C81.4247 44.9063 81.1428 44.933 80.8565 44.933Z" fill="white"/>
<path d="M84.8289 44.933C84.2783 44.933 83.8577 44.8042 83.567 44.5467C83.2807 44.2891 83.0847 43.9361 82.9789 43.4876C82.8732 43.0392 82.8204 42.5307 82.8204 41.9624C82.8204 41.3541 82.8798 40.8567 82.9988 40.4704C83.1177 40.0797 83.3203 39.76 83.6066 39.5113C83.8973 39.2626 84.2959 39.0517 84.8025 38.8785L86.2693 38.3723V37.3466C86.2693 36.8093 86.0953 36.5407 85.7473 36.5407C85.4302 36.5407 85.2716 36.7583 85.2716 37.1934V37.7929H82.9723C82.9679 37.7574 82.9657 37.713 82.9657 37.6597C82.9657 37.6019 82.9657 37.5376 82.9657 37.4665C82.9657 36.4719 83.197 35.7681 83.6595 35.3551C84.1264 34.9377 84.8642 34.729 85.8728 34.729C86.4014 34.729 86.8749 34.8245 87.2934 35.0154C87.7118 35.2019 88.0422 35.4795 88.2844 35.848C88.5311 36.2166 88.6544 36.6717 88.6544 37.2134V44.8264H86.3023V43.6408C86.1878 44.0582 85.9984 44.3779 85.7341 44.6C85.4698 44.822 85.1681 44.933 84.8289 44.933ZM85.7605 43.0814C85.9543 43.0814 86.0865 42.9992 86.1569 42.8349C86.2274 42.6706 86.2627 42.493 86.2627 42.3021V39.518C85.9367 39.6512 85.6834 39.8199 85.5028 40.0242C85.3223 40.224 85.232 40.5193 85.232 40.91V42.1955C85.232 42.7861 85.4081 43.0814 85.7605 43.0814Z" fill="white"/>
<path d="M89.6206 34.2228V32.238H91.986V34.2228H89.6206ZM89.6206 44.8264V34.8356H91.986V44.8264H89.6206Z" fill="white"/>
<path d="M92.9918 44.8264V33.1039H95.3968V44.8264H92.9918Z" fill="white"/>
</g>
<defs>
<clipPath id="clip0_690_273">
<rect width="99.1295" height="60" fill="white"/>
</clipPath>
</defs>
</svg>
