<svg width="17" height="17" viewBox="0 0 17 17" fill="none" xmlns="http://www.w3.org/2000/svg">
<path d="M7.13029 5.64096C7.08899 5.6061 7.05622 5.5647 7.03386 5.51915C7.01151 5.4736 7 5.42477 7 5.37547C7 5.32616 7.01151 5.27734 7.03386 5.23178C7.05622 5.18623 7.08899 5.14484 7.13029 5.10997C7.1716 5.07511 7.22064 5.04745 7.27462 5.02858C7.32859 5.00971 7.38644 5 7.44486 5C7.50327 5 7.56112 5.00971 7.61509 5.02858C7.66907 5.04745 7.71811 5.07511 7.75942 5.10997L10.8695 7.73492C10.9108 7.76975 10.9437 7.81113 10.9661 7.85669C10.9885 7.90225 11 7.95109 11 8.00041C11 8.04974 10.9885 8.09858 10.9661 8.14413C10.9437 8.18969 10.9108 8.23107 10.8695 8.26591L7.75942 10.8909C7.71811 10.9257 7.66907 10.9534 7.61509 10.9722C7.56112 10.9911 7.50327 11.0008 7.44486 11.0008C7.38644 11.0008 7.32859 10.9911 7.27462 10.9722C7.22064 10.9534 7.1716 10.9257 7.13029 10.8909C7.08899 10.856 7.05622 10.8146 7.03386 10.769C7.01151 10.7235 7 10.6747 7 10.6254C7 10.5761 7.01151 10.5272 7.03386 10.4817C7.05622 10.4361 7.08899 10.3947 7.13029 10.3599L9.92668 8.00041L7.13029 5.64096Z" fill="#BA3D51"/>
<circle cx="8.5" cy="8.5" r="8" stroke="#BA3D51"/>
</svg>
