<svg width="80" height="80" viewBox="0 0 80 80" fill="none" xmlns="http://www.w3.org/2000/svg">
<path d="M68 6.10352e-05H12C8.8174 6.10352e-05 5.76516 1.40482 3.51472 3.9053C1.26428 6.40579 0 9.79718 0 13.3334V48.889C0 52.4252 1.26428 55.8166 3.51472 58.317C5.76516 60.8175 8.8174 62.2223 12 62.2223H36V71.1112H20C18.9391 71.1112 17.9217 71.5794 17.1716 72.4129C16.4214 73.2464 16 74.3769 16 75.5556C16 76.7344 16.4214 77.8648 17.1716 78.6983C17.9217 79.5318 18.9391 80.0001 20 80.0001H60C61.0609 80.0001 62.0783 79.5318 62.8284 78.6983C63.5786 77.8648 64 76.7344 64 75.5556C64 74.3769 63.5786 73.2464 62.8284 72.4129C62.0783 71.5794 61.0609 71.1112 60 71.1112H44V62.2223H68C71.1826 62.2223 74.2348 60.8175 76.4853 58.317C78.7357 55.8166 80 52.4252 80 48.889V13.3334C80 9.79718 78.7357 6.40579 76.4853 3.9053C74.2348 1.40482 71.1826 6.10352e-05 68 6.10352e-05ZM72 48.889C72 50.0677 71.5786 51.1982 70.8284 52.0316C70.0783 52.8651 69.0609 53.3334 68 53.3334H12C10.9391 53.3334 9.92172 52.8651 9.17157 52.0316C8.42143 51.1982 8 50.0677 8 48.889V13.3334C8 12.1547 8.42143 11.0242 9.17157 10.1907C9.92172 9.3572 10.9391 8.88895 12 8.88895H68C69.0609 8.88895 70.0783 9.3572 70.8284 10.1907C71.5786 11.0242 72 12.1547 72 13.3334V48.889Z" fill="white"/>
</svg>
