<svg width="17" height="17" viewBox="0 0 17 17" fill="none" xmlns="http://www.w3.org/2000/svg">
<path d="M9.86971 6.64096C9.91101 6.6061 9.94378 6.5647 9.96614 6.51915C9.98849 6.4736 10 6.42477 10 6.37547C10 6.32616 9.98849 6.27734 9.96614 6.23178C9.94378 6.18623 9.91101 6.14484 9.86971 6.10997C9.8284 6.07511 9.77936 6.04745 9.72538 6.02858C9.67141 6.00971 9.61356 6 9.55514 6C9.49673 6 9.43888 6.00971 9.38491 6.02858C9.33093 6.04745 9.28189 6.07511 9.24058 6.10997L6.13053 8.73492C6.08915 8.76975 6.05632 8.81113 6.03393 8.85669C6.01153 8.90225 6 8.95109 6 9.00041C6 9.04974 6.01153 9.09858 6.03393 9.14413C6.05632 9.18969 6.08915 9.23107 6.13053 9.26591L9.24058 11.8909C9.28189 11.9257 9.33093 11.9534 9.38491 11.9722C9.43888 11.9911 9.49673 12.0008 9.55514 12.0008C9.61356 12.0008 9.67141 11.9911 9.72538 11.9722C9.77936 11.9534 9.8284 11.9257 9.86971 11.8909C9.91101 11.856 9.94378 11.8146 9.96614 11.769C9.98849 11.7235 10 11.6747 10 11.6254C10 11.5761 9.98849 11.5272 9.96614 11.4817C9.94378 11.4361 9.91101 11.3947 9.86971 11.3599L7.07332 9.00041L9.86971 6.64096Z" fill="#BA3D51"/>
<circle r="8" transform="matrix(-1 0 0 1 8.5 8.5)" stroke="#BA3D51"/>
</svg>
