<svg width="21" height="26" viewBox="0 0 21 26" fill="none" xmlns="http://www.w3.org/2000/svg">
<path d="M19.6952 0.912534C19.5769 0.781475 19.4323 0.676955 19.2707 0.605856C19.1091 0.534757 18.9343 0.498692 18.7577 0.500036H1.2578C1.08126 0.498692 0.906448 0.534757 0.74486 0.605856C0.583272 0.676955 0.438576 0.781475 0.320301 0.912534C0.202341 1.04378 0.113508 1.19852 0.0596469 1.36657C0.00578563 1.53462 -0.0118835 1.71216 0.00780182 1.88753L2.25779 22.1624C2.35975 23.0839 2.79942 23.9349 3.49194 24.5512C4.18445 25.1676 5.08073 25.5056 6.00778 25.4999H14.0327C14.9598 25.5056 15.8561 25.1676 16.5486 24.5512C17.2411 23.9349 17.6808 23.0839 17.7827 22.1624L20.0077 1.88753C20.0274 1.71216 20.0097 1.53462 19.9559 1.36657C19.902 1.19852 19.8132 1.04378 19.6952 0.912534ZM15.2577 21.8874C15.2238 22.1946 15.0772 22.4783 14.8464 22.6837C14.6155 22.8892 14.3168 23.0018 14.0077 22.9999H5.99528C5.68626 23.0018 5.3875 22.8892 5.15666 22.6837C4.92582 22.4783 4.77927 22.1946 4.74528 21.8874L3 12.5H17L15.2577 21.8874ZM17 11H3L2 2.5H18L17 11Z" fill="white"/>
</svg>
