<svg width="21" height="20" viewBox="0 0 21 20" fill="none" xmlns="http://www.w3.org/2000/svg">
<path d="M18.1905 16.3784C19.217 15.1444 19.931 13.6814 20.272 12.1133C20.613 10.5452 20.571 8.91814 20.1495 7.3697C19.7281 5.82126 18.9396 4.39702 17.8507 3.21747C16.7619 2.03791 15.4047 1.13774 13.894 0.593109C12.3834 0.0484744 10.7637 -0.124604 9.17188 0.0885164C7.58011 0.301637 6.06313 0.894685 4.74926 1.81749C3.43539 2.7403 2.36329 3.96572 1.62365 5.39009C0.884015 6.81446 0.498597 8.39587 0.500004 10.0005C0.500544 12.3333 1.32327 14.5913 2.82381 16.3784L2.80951 16.3906C2.85955 16.4506 2.91673 16.502 2.9682 16.5613C3.03253 16.6348 3.10186 16.7041 3.16834 16.7755C3.36848 16.9927 3.57434 17.2012 3.79021 17.3969C3.85597 17.4569 3.92388 17.5126 3.99035 17.5697C4.21909 17.7669 4.45426 17.954 4.698 18.1283C4.72945 18.1497 4.75805 18.1775 4.7895 18.1997V18.1911C6.46362 19.3682 8.46076 20 10.5079 20C12.555 20 14.5521 19.3682 16.2262 18.1911V18.1997C16.2577 18.1775 16.2856 18.1497 16.3177 18.1283C16.5608 17.9533 16.7966 17.7669 17.0254 17.5697C17.0919 17.5126 17.1598 17.4562 17.2255 17.3969C17.4414 17.2005 17.6473 16.9927 17.8474 16.7755C17.9139 16.7041 17.9825 16.6348 18.0475 16.5613C18.0983 16.502 18.1562 16.4506 18.2062 16.3899L18.1905 16.3784ZM10.5072 4.28687C11.1433 4.28687 11.7652 4.47536 12.2942 4.82852C12.8232 5.18167 13.2354 5.68362 13.4789 6.27089C13.7223 6.85816 13.786 7.50438 13.6619 8.12782C13.5378 8.75127 13.2315 9.32394 12.7816 9.77342C12.3318 10.2229 11.7586 10.529 11.1347 10.653C10.5107 10.777 9.86397 10.7134 9.27622 10.4701C8.68847 10.2269 8.1861 9.81492 7.83266 9.28639C7.47922 8.75786 7.29057 8.13647 7.29057 7.50081C7.29057 6.64842 7.62946 5.83094 8.23268 5.22821C8.83591 4.62548 9.65406 4.28687 10.5072 4.28687ZM4.79378 16.3784C4.80618 15.4407 5.1876 14.5455 5.85551 13.8865C6.52343 13.2276 7.42413 12.8579 8.36276 12.8574H12.6515C13.5902 12.8579 14.4909 13.2276 15.1588 13.8865C15.8267 14.5455 16.2081 15.4407 16.2205 16.3784C14.6529 17.79 12.6174 18.5711 10.5072 18.5711C8.39689 18.5711 6.36145 17.79 4.79378 16.3784Z" fill="#BA3D51"/>
</svg>
