<svg width="20" height="26" viewBox="0 0 20 26" fill="none" xmlns="http://www.w3.org/2000/svg">
<path d="M19.6311 10.9911L16.533 1.13617C16.4739 0.951591 16.3525 0.789892 16.1871 0.67523C16.0218 0.560569 15.8212 0.499101 15.6155 0.50001H4.17619C3.97044 0.499101 3.76989 0.560569 3.60452 0.67523C3.43914 0.789892 3.31782 0.951591 3.25866 1.13617L0.160521 10.9911C-0.103683 11.8098 -0.0401354 12.6907 0.33926 13.4688C1.10426 15.0517 2.30342 16.4164 3.81466 17.4241C5.32591 18.4318 7.09525 19.0464 8.94256 19.2054V23.7143H5.12946C4.87664 23.7143 4.63417 23.8084 4.4554 23.9758C4.27662 24.1432 4.17619 24.3703 4.17619 24.6071C4.17619 24.8439 4.27662 25.071 4.4554 25.2385C4.63417 25.4059 4.87664 25.5 5.12946 25.5H14.6622C14.915 25.5 15.1575 25.4059 15.3363 25.2385C15.515 25.071 15.6155 24.8439 15.6155 24.6071C15.6155 24.3703 15.515 24.1432 15.3363 23.9758C15.1575 23.8084 14.915 23.7143 14.6622 23.7143H10.8491V19.2054C12.6964 19.0464 14.4658 18.4318 15.977 17.4241C17.4882 16.4164 18.6874 15.0517 19.4524 13.4688C19.8318 12.6907 19.8953 11.8098 19.6311 10.9911ZM4.89114 2.28572H14.9005L17.379 10.154C16.104 10.6563 13.6851 11.0915 10.3248 9.51786C7.20283 8.06697 4.70049 8.06697 2.94885 8.4576L4.89114 2.28572ZM17.7127 12.7433C17.0326 14.1513 15.9336 15.3458 14.5471 16.1836C13.1607 17.0214 11.5458 17.467 9.89583 17.467C8.24589 17.467 6.63095 17.0214 5.24453 16.1836C3.85811 15.3458 2.75903 14.1513 2.07899 12.7433C1.88703 12.3511 1.85317 11.9071 1.98366 11.4933L2.29347 10.5335C3.60422 9.98661 6.03507 9.51786 9.46686 11.125C11.5283 12.0848 13.3157 12.4085 14.7933 12.4085C15.8463 12.4097 16.8913 12.2359 17.8795 11.8951C17.9018 12.1865 17.8444 12.4784 17.7127 12.7433Z" fill="white"/>
</svg>
