<svg width="80" height="80" viewBox="0 0 80 80" fill="none" xmlns="http://www.w3.org/2000/svg">
<path fill-rule="evenodd" clip-rule="evenodd" d="M58.05 47.9401C57.0567 47.4435 52.1867 45.0501 51.28 44.7168C50.3733 44.3868 49.7133 44.2235 49.05 45.2168C48.39 46.2035 46.4933 48.4368 45.9167 49.0968C45.3367 49.7601 44.76 49.8401 43.77 49.3468C42.78 48.8468 39.5867 47.8035 35.8033 44.4301C32.86 41.8035 30.87 38.5601 30.2933 37.5668C29.7167 36.5768 30.23 36.0401 30.7267 35.5468C31.1733 35.1035 31.7167 34.3901 32.2133 33.8135C32.71 33.2335 32.8733 32.8201 33.2033 32.1568C33.5367 31.4968 33.37 30.9201 33.12 30.4235C32.8733 29.9268 30.8933 25.0501 30.0667 23.0668C29.2633 21.1368 28.4467 21.4001 27.84 21.3668C27.26 21.3401 26.6 21.3335 25.94 21.3335C25.28 21.3335 24.2067 21.5801 23.3 22.5735C22.39 23.5635 19.8333 25.9601 19.8333 30.8368C19.8333 35.7101 23.38 40.4201 23.8767 41.0835C24.3733 41.7435 30.86 51.7501 40.7967 56.0401C43.1633 57.0601 45.0067 57.6701 46.4433 58.1235C48.8167 58.8801 50.9767 58.7735 52.6833 58.5168C54.5833 58.2335 58.5433 56.1201 59.37 53.8068C60.1933 51.4935 60.1933 49.5101 59.9467 49.0968C59.7 48.6835 59.04 48.4368 58.0467 47.9401H58.05ZM39.9767 72.6168H39.9633C34.0614 72.6179 28.2679 71.0313 23.19 68.0235L21.99 67.3101L9.51667 70.5835L12.8467 58.4235L12.0633 57.1768C8.76379 51.9246 7.01765 45.8461 7.02667 39.6435C7.03333 21.4768 21.8133 6.6968 39.99 6.6968C48.79 6.6968 57.0633 10.1301 63.2833 16.3568C66.3513 19.4121 68.7829 23.0454 70.4376 27.0465C72.0923 31.0476 72.9371 35.3371 72.9233 39.6668C72.9167 57.8335 58.1367 72.6168 39.9767 72.6168ZM68.0167 11.6268C64.344 7.92988 59.9741 4.99859 55.1603 3.0028C50.3465 1.00702 45.1845 -0.0135875 39.9733 0.000136592C18.1267 0.000136592 0.34 17.7835 0.333333 39.6401C0.32321 46.596 2.14792 53.4314 5.62333 59.4568L0 80.0001L21.0133 74.4868C26.8262 77.6539 33.3403 79.3133 39.96 79.3135H39.9767C61.8233 79.3135 79.61 61.5301 79.6167 39.6701C79.6328 34.4611 78.6159 29.3005 76.6248 24.4869C74.6337 19.6734 71.7079 15.3024 68.0167 11.6268Z" fill="white"/>
</svg>
