<svg width="31" height="30" viewBox="0 0 31 30" fill="none" xmlns="http://www.w3.org/2000/svg">
<path fill-rule="evenodd" clip-rule="evenodd" d="M19.262 21.7924C18.7801 21.7924 17.8796 21.6887 15.6081 20.7953C13.3365 19.902 11.1224 17.9135 9.29829 15.2449L9.19504 15.0951C8.75909 14.5187 7.73233 12.9798 7.73233 11.464C7.71949 10.963 7.8108 10.4649 8.00044 10.0014C8.19008 9.53796 8.47387 9.11932 8.83367 8.77232L8.91971 8.68012C8.98327 8.60531 9.0613 8.54426 9.14906 8.50067C9.23682 8.45708 9.33247 8.43184 9.43022 8.42651H10.153H10.2677C10.3266 8.49901 10.3731 8.5808 10.4054 8.66858C10.5947 9.08932 10.9102 9.8732 11.174 10.5187V10.5879C11.4436 11.2507 11.5469 11.5158 11.5985 11.6138C11.6127 11.6346 11.6224 11.6582 11.6272 11.683L11.5755 11.7637C11.5153 11.9027 11.4362 12.0327 11.3404 12.1499L11.1281 12.4034C10.9962 12.5648 10.8815 12.7031 10.784 12.8011C10.5364 12.9982 10.3701 13.2803 10.3172 13.5931C10.2642 13.906 10.3283 14.2274 10.4971 14.4956C11.1321 15.5649 11.9186 16.5357 12.8318 17.3775C13.75 18.2002 14.799 18.8626 15.935 19.3371L16.1587 19.4351C16.3895 19.5627 16.6469 19.6338 16.9102 19.6426C17.0979 19.6408 17.2828 19.5969 17.4515 19.5141C17.6202 19.4313 17.7684 19.3118 17.8853 19.1642C17.8853 19.1642 18.7801 18.1383 19.1472 17.608H19.2161C19.4799 17.706 21.0574 18.4726 21.8318 18.8587L22.2505 19.0605C22.2221 19.478 22.1352 19.8893 21.9924 20.2824C21.7859 20.8587 20.501 21.6195 19.9618 21.6656L19.7323 21.6945C19.5775 21.7358 19.4204 21.7685 19.262 21.7924Z" fill="white"/>
<path d="M15.0172 30C12.5079 29.998 10.0382 29.3702 7.82984 28.1729L7.57745 28.0346L0.177825 29.9769L2.1568 22.7435L2.00192 22.4784C0.688328 20.2021 -0.00235946 17.617 6.05578e-06 14.9857C0.0212468 10.9999 1.61352 7.1849 4.42815 4.37621C7.24278 1.56752 11.0504 -0.00602166 15.0172 0.000134731C16.9898 -0.00826974 18.9444 0.376605 20.7679 1.13246C22.5915 1.88832 24.2476 3.00016 25.6406 4.40358C27.0366 5.79234 28.144 7.44608 28.8983 9.26868C29.6526 11.0913 30.0388 13.0463 30.0344 15.0202C30.0102 19.0046 28.4168 22.8171 25.6026 25.6243C22.7885 28.4314 18.9826 30.0046 15.0172 30ZM7.97898 26.8703C10.1094 28.1336 12.5378 28.8003 15.0115 28.8011C18.6689 28.8042 22.1782 27.3497 24.7697 24.7565C27.3613 22.1633 28.8234 18.6433 28.8356 14.9683C28.8429 13.1471 28.4891 11.3427 27.7947 9.66039C27.1004 7.97809 26.0795 6.45163 24.7916 5.17012C23.5099 3.88667 21.9889 2.86973 20.3156 2.17744C18.6424 1.48516 16.8497 1.1311 15.0402 1.13556C11.3818 1.13096 7.87102 2.58485 5.27824 5.17818C2.68547 7.77151 1.22248 11.2924 1.21033 14.9683C1.20745 17.5737 1.94151 20.1263 3.32697 22.3286L3.46464 22.5476L1.89293 28.3112L7.77821 26.7666L7.97898 26.8703Z" fill="white"/>
</svg>
